<svg width="20" height="19" viewBox="0 0 20 19" fill="none" xmlns="http://www.w3.org/2000/svg">
<path fill-rule="evenodd" clip-rule="evenodd" d="M3.33337 0.833336C1.95266 0.833336 0.833374 1.95262 0.833374 3.33334C0.833374 4.71405 1.95266 5.83334 3.33337 5.83334C4.71409 5.83334 5.83337 4.71405 5.83337 3.33334C5.83337 1.95262 4.71409 0.833336 3.33337 0.833336ZM2.50004 3.33334C2.50004 2.8731 2.87314 2.5 3.33337 2.5C3.79361 2.5 4.16671 2.8731 4.16671 3.33334C4.16671 3.79357 3.79361 4.16667 3.33337 4.16667C2.87314 4.16667 2.50004 3.79357 2.50004 3.33334Z" fill="#F78E12"/>
<path fill-rule="evenodd" clip-rule="evenodd" d="M13.3334 5.83334C11.7863 5.83334 10.3025 6.44792 9.20858 7.54188C8.11462 8.63584 7.50004 10.1196 7.50004 11.6667V17.5C7.50004 17.9602 7.87314 18.3333 8.33337 18.3333H11.6667C12.1269 18.3333 12.5 17.9602 12.5 17.5V11.6667C12.5 11.4457 12.5878 11.2337 12.7441 11.0774C12.9004 10.9211 13.1124 10.8333 13.3334 10.8333C13.5544 10.8333 13.7663 10.9211 13.9226 11.0774C14.0789 11.2337 14.1667 11.4457 14.1667 11.6667V17.5C14.1667 17.9602 14.5398 18.3333 15 18.3333H18.3334C18.7936 18.3333 19.1667 17.9602 19.1667 17.5V11.6667C19.1667 10.1196 18.5521 8.63584 17.4582 7.54188C16.3642 6.44792 14.8805 5.83334 13.3334 5.83334ZM13.3334 7.5C12.2283 7.5 11.1685 7.93899 10.3871 8.72039C9.60569 9.50179 9.16671 10.5616 9.16671 11.6667V16.6667H10.8334V11.6667C10.8334 11.0036 11.0968 10.3677 11.5656 9.8989C12.0344 9.43006 12.6703 9.16667 13.3334 9.16667C13.9964 9.16667 14.6323 9.43006 15.1011 9.8989C15.57 10.3677 15.8334 11.0036 15.8334 11.6667V16.6667H17.5V11.6667C17.5 10.5616 17.0611 9.50179 16.2797 8.72039C15.4983 7.93899 14.4384 7.5 13.3334 7.5Z" fill="#F78E12"/>
<path fill-rule="evenodd" clip-rule="evenodd" d="M0.833374 7.5C0.833374 7.03977 1.20647 6.66667 1.66671 6.66667H5.00004C5.46028 6.66667 5.83337 7.03977 5.83337 7.5V17.5C5.83337 17.9602 5.46028 18.3333 5.00004 18.3333H1.66671C1.20647 18.3333 0.833374 17.9602 0.833374 17.5V7.5ZM2.50004 8.33334V16.6667H4.16671V8.33334H2.50004Z" fill="#F78E12"/>
</svg>
