<svg width="12" height="14" viewBox="0 0 12 14" fill="none" xmlns="http://www.w3.org/2000/svg">
<path fill-rule="evenodd" clip-rule="evenodd" d="M5.99984 3.5C4.71117 3.5 3.6665 4.54467 3.6665 5.83333C3.6665 7.122 4.71117 8.16667 5.99984 8.16667C7.2885 8.16667 8.33317 7.122 8.33317 5.83333C8.33317 4.54467 7.2885 3.5 5.99984 3.5ZM4.83317 5.83333C4.83317 5.189 5.3555 4.66667 5.99984 4.66667C6.64417 4.66667 7.1665 5.189 7.1665 5.83333C7.1665 6.47767 6.64417 7 5.99984 7C5.3555 7 4.83317 6.47767 4.83317 5.83333Z" fill="#F78E12"/>
<path fill-rule="evenodd" clip-rule="evenodd" d="M5.67595 13.9018C5.67611 13.9019 5.67626 13.902 5.99984 13.4167L5.67595 13.9018C5.87189 14.0324 6.12747 14.0327 6.32341 13.902L5.99984 13.4167C6.32341 13.902 6.32324 13.9021 6.32341 13.902L6.3254 13.9007L6.32928 13.8981L6.34265 13.8891C6.35401 13.8813 6.37021 13.8703 6.39093 13.8559C6.43236 13.8272 6.4919 13.7854 6.56696 13.7312C6.71702 13.6228 6.92946 13.4646 7.18352 13.2623C7.69073 12.8584 8.36853 12.275 9.04831 11.5574C10.384 10.1475 11.8332 8.10947 11.8332 5.83333C11.8332 4.28624 11.2186 2.80251 10.1246 1.70854C9.03066 0.614581 7.54693 0 5.99984 0C4.45274 0 2.96901 0.614581 1.87505 1.70854C0.781085 2.80251 0.166504 4.28624 0.166504 5.83333C0.166504 8.10947 1.61566 10.1475 2.95136 11.5574C3.63115 12.275 4.30895 12.8584 4.81615 13.2623C5.07021 13.4646 5.28266 13.6228 5.43272 13.7312C5.50777 13.7854 5.56731 13.8272 5.60875 13.8559C5.62946 13.8703 5.64566 13.8813 5.65702 13.8891L5.67039 13.8981L5.67428 13.9007L5.67595 13.9018ZM2.70001 2.5335C3.57517 1.65833 4.76216 1.16667 5.99984 1.16667C7.23751 1.16667 8.4245 1.65833 9.29967 2.5335C10.1748 3.40867 10.6665 4.59566 10.6665 5.83333C10.6665 7.64053 9.49066 9.39415 8.20136 10.7551C7.56865 11.4229 6.93395 11.9697 6.45678 12.3497C6.27919 12.4911 6.12407 12.6089 5.99984 12.7007C5.8756 12.6089 5.72049 12.4911 5.5429 12.3497C5.06573 11.9697 4.43103 11.4229 3.79831 10.7551C2.50902 9.39415 1.33317 7.64053 1.33317 5.83333C1.33317 4.59566 1.82484 3.40867 2.70001 2.5335Z" fill="#F78E12"/>
</svg>
