<svg width="14" height="12" viewBox="0 0 14 12" fill="none" xmlns="http://www.w3.org/2000/svg">
<path fill-rule="evenodd" clip-rule="evenodd" d="M0.583575 2.48988C0.58348 2.49564 0.583471 2.50139 0.583546 2.50715V9.5C0.583546 10.4638 1.36971 11.25 2.33355 11.25H11.6669C12.6307 11.25 13.4169 10.4638 13.4169 9.5V2.50721C13.417 2.50141 13.4169 2.4956 13.4169 2.4898C13.4113 1.53063 12.6273 0.75 11.6669 0.75H2.33355C1.37309 0.75 0.589053 1.53067 0.583575 2.48988ZM1.81238 2.2398C1.90885 2.04904 2.10724 1.91667 2.33355 1.91667H11.6669C11.8932 1.91667 12.0916 2.04904 12.188 2.2398L7.00021 5.87128L1.81238 2.2398ZM12.2502 3.62038V9.5C12.2502 9.8195 11.9864 10.0833 11.6669 10.0833H2.33355C2.01405 10.0833 1.75021 9.8195 1.75021 9.5V3.62038L6.66569 7.06122C6.86655 7.20182 7.13388 7.20182 7.33473 7.06122L12.2502 3.62038Z" fill="#F78E12"/>
</svg>
